<?xml version="1.0" encoding="utf-8"?>
<!-- Generator: Adobe Illustrator 27.1.1, SVG Export Plug-In . SVG Version: 6.00 Build 0)  -->
<svg version="1.1" id="Layer_1" xmlns="http://www.w3.org/2000/svg" xmlns:xlink="http://www.w3.org/1999/xlink" x="0px" y="0px"
	 width="1700.787px" height="3401.575px" viewBox="0 0 1700.787 3401.575" enable-background="new 0 0 1700.787 3401.575"
	 xml:space="preserve">
<g id="LWPOLYLINE_00000040552900914852450390000011893606553993236887_">
	<path d="M1130.385,1197.862l0,440.023c0,105.59-72.876,197.207-175.759,220.959l-170.929,39.462l11.478,49.716l272.926-63.01
		c140.548-32.448,287.04-28.612,425.697,11.148l126.473,36.266l14.064-49.047l-246.832-70.778
		c-85.094-24.4-143.732-102.216-143.732-190.739l0-585.475c0-26.397-18.219-49.302-43.94-55.24l-405.979-93.728l-11.478,49.716
		l172.252,39.768C1057.509,1000.655,1130.385,1092.273,1130.385,1197.862"/>
</g>
<g id="LWPOLYLINE_00000147930597774197657240000014402000375418656131_">
	<path d="M598.939,1712.259l-270.709,28.346l-270.709-28.346c-7.045,0-12.756,5.711-12.756,12.756v87.874
		c0,7.045,5.711,12.756,12.756,12.756l270.709-28.346l270.709,28.346c7.045,0,12.756-5.711,12.756-12.756v-87.874
		C611.695,1717.97,605.984,1712.259,598.939,1712.259z"/>
</g>
<g id="LWPOLYLINE_00000121281555999611174520000006992258883431480984_">
	<path d="M611.644,1903.933c0-7.045-5.711-12.756-12.756-12.756l-270.709,28.346L57.47,1891.177
		c-7.045,0-12.756,5.711-12.756,12.756v87.874c0,7.045,5.711,12.756,12.756,12.756l270.709-28.346l270.709,28.346
		c7.045,0,12.756-5.711,12.756-12.756V1903.933z"/>
</g>
<g id="LWPOLYLINE_00000087383230432099632590000017214637828223666818_">
	<path d="M180.81,1587.629l-126.473,36.265l-14.064-49.047l246.832-70.778c85.094-24.4,143.732-102.216,143.732-190.739V727.856
		c0-26.397,18.219-49.302,43.94-55.24l405.979-93.728l11.478,49.716l-172.252,39.768c-102.883,23.753-175.759,115.37-175.759,220.96
		v440.023c0,105.59,72.876,197.207,175.759,220.959l170.929,39.462l-11.478,49.716l-272.926-63.01
		C465.959,1544.034,319.467,1547.87,180.81,1587.629z"/>
</g>
<g id="LWPOLYLINE_00000085929563496362875100000017695000716528986499_">
	<path d="M1393.643,780.148h34.989V371.959c0-46.966-38.073-85.039-85.039-85.039H351.467c-46.966,0-85.039,38.073-85.039,85.039
		v408.189h34.989c0.053-0.054,0.106-0.107,0.16-0.16c4.472-4.383,11.651-4.312,16.034,0.16s4.312,11.651-0.16,16.034v465.855h56.693
		v-683.15c0-31.311,25.382-56.693,56.693-56.693h833.386c31.311,0,56.693,25.382,56.693,56.693v683.15h56.693V796.183
		c-0.054-0.053-0.107-0.106-0.16-0.16c-4.383-4.472-4.312-11.651,0.16-16.034S1389.26,775.676,1393.643,780.148z"/>
</g>
<g id="LWPOLYLINE_00000014595909587742396840000005806592024085717151_">
	<path d="M1660.514,1259.203c0,14.09-11.422,25.512-25.512,25.512h-49.846c-13.426,0-24.554-10.406-25.454-23.801l-60.736-903.747
		c-4.801-71.443-64.153-126.94-135.757-126.94h-283.798V40.306h530.079V432.46c-4.472,4.383-4.544,11.562-0.16,16.034
		c4.384,4.472,11.562,4.544,16.034,0.16c0.054-0.053,0.107-0.106,0.16-0.16h34.989
		C1660.514,448.495,1660.514,1259.203,1660.514,1259.203z"/>
</g>
<g id="LWPOLYLINE_00000115486485422055445450000003687876903509364098_">
	<path d="M79.755,448.495H44.766v810.709c0,14.09,11.422,25.512,25.512,25.512h49.846c13.426,0,24.554-10.406,25.454-23.801
		l60.736-903.747c4.801-71.443,64.153-126.94,135.757-126.94h283.798V40.306H95.79V432.46c0.054,0.053,0.107,0.106,0.16,0.16
		c4.383,4.472,4.312,11.651-0.16,16.034C91.318,453.039,84.139,452.967,79.755,448.495z"/>
</g>
<g id="CIRCLE">
	<circle fill="#FFFFFF" stroke="#000000" stroke-width="2" stroke-miterlimit="10" cx="628.525" cy="663.304" r="8.504"/>
</g>
<g id="CIRCLE_00000090292543998031522510000016533529760484255618_">
	<circle fill="#FFFFFF" stroke="#000000" stroke-width="2" stroke-miterlimit="10" cx="813.578" cy="620.581" r="8.504"/>
</g>
<g id="CIRCLE_00000088108896113422426610000009139246416179344265_">
	<circle fill="#FFFFFF" stroke="#000000" stroke-width="2" stroke-miterlimit="10" cx="457.766" cy="762.698" r="8.504"/>
</g>
<g id="CIRCLE_00000166650903310101513640000005724538878700186515_">
	<circle fill="#FFFFFF" stroke="#000000" stroke-width="2" stroke-miterlimit="10" cx="293.903" cy="1528.66" r="8.504"/>
</g>
<g id="CIRCLE_00000024681461928643313670000010082384580432408509_">
	<circle fill="#FFFFFF" stroke="#000000" stroke-width="2" stroke-miterlimit="10" cx="624.439" cy="1554.439" r="8.504"/>
</g>
<g id="CIRCLE_00000039841770820114127320000001908478795427295397_">
	<circle fill="#FFFFFF" stroke="#000000" stroke-width="2" stroke-miterlimit="10" cx="809.493" cy="1597.162" r="8.504"/>
</g>
<g id="CIRCLE_00000006679821307507880350000010910369094811987870_">
	<circle fill="#FFFFFF" stroke="#000000" stroke-width="2" stroke-miterlimit="10" cx="457.766" cy="1360.808" r="8.504"/>
</g>
<g id="CIRCLE_00000140718255866407835170000001923294366351074188_">
	<circle fill="#FFFFFF" stroke="#000000" stroke-width="2" stroke-miterlimit="10" cx="103.164" cy="1583.354" r="8.504"/>
</g>
<g id="CIRCLE_00000013181548930731200980000004806090299327922364_">
	<circle fill="#FFFFFF" stroke="#000000" stroke-width="2" stroke-miterlimit="10" cx="583.297" cy="1908.185" r="8.504"/>
</g>
<g id="CIRCLE_00000036211198941152020280000014539930223003372970_">
	<circle fill="#FFFFFF" stroke="#000000" stroke-width="2" stroke-miterlimit="10" cx="583.297" cy="1987.555" r="8.504"/>
</g>
<g id="CIRCLE_00000165211147962318230490000015397297293855070356_">
	<circle fill="#FFFFFF" stroke="#000000" stroke-width="2" stroke-miterlimit="10" cx="73.061" cy="1987.555" r="8.504"/>
</g>
<g id="CIRCLE_00000060015482184786114760000004256760777156897941_">
	<circle fill="#FFFFFF" stroke="#000000" stroke-width="2" stroke-miterlimit="10" cx="73.061" cy="1908.185" r="8.504"/>
</g>
<g id="CIRCLE_00000046337069185077753640000008474787349814467734_">
	<circle fill="#FFFFFF" stroke="#000000" stroke-width="2" stroke-miterlimit="10" cx="73.113" cy="1808.637" r="8.504"/>
</g>
<g id="CIRCLE_00000137817451977203393440000005743236830050270117_">
	<circle fill="#FFFFFF" stroke="#000000" stroke-width="2" stroke-miterlimit="10" cx="73.113" cy="1729.267" r="8.504"/>
</g>
<g id="CIRCLE_00000007418206240277688820000002411968693509000369_">
	<circle fill="#FFFFFF" stroke="#000000" stroke-width="2" stroke-miterlimit="10" cx="583.349" cy="1729.267" r="8.504"/>
</g>
<g id="CIRCLE_00000183935780853374839420000002291625894818687366_">
	<circle fill="#FFFFFF" stroke="#000000" stroke-width="2" stroke-miterlimit="10" cx="583.349" cy="1808.637" r="8.504"/>
</g>
<g id="CIRCLE_00000110433287422537277840000008476739711856815792_">
	<circle fill="#FFFFFF" stroke="#000000" stroke-width="2" stroke-miterlimit="10" cx="1046.083" cy="971.835" r="8.504"/>
</g>
<g id="CIRCLE_00000034057337287349837180000008327042842592104885_">
	<circle fill="#FFFFFF" stroke="#000000" stroke-width="2" stroke-miterlimit="10" cx="861.029" cy="929.111" r="8.504"/>
</g>
<g id="CIRCLE_00000077289915692819163200000011961834677808556177_">
	<circle fill="#FFFFFF" stroke="#000000" stroke-width="2" stroke-miterlimit="10" cx="1216.841" cy="1071.229" r="8.504"/>
</g>
<g id="CIRCLE_00000132782480622688467720000004097837971084037037_">
	<circle fill="#FFFFFF" stroke="#000000" stroke-width="2" stroke-miterlimit="10" cx="1571.442" cy="1891.885" r="8.504"/>
</g>
<g id="CIRCLE_00000005975051805677677820000014136976579647094435_">
	<circle fill="#FFFFFF" stroke="#000000" stroke-width="2" stroke-miterlimit="10" cx="1050.168" cy="1862.97" r="8.504"/>
</g>
<g id="CIRCLE_00000003824086388109653900000006796799834389214376_">
	<circle fill="#FFFFFF" stroke="#000000" stroke-width="2" stroke-miterlimit="10" cx="865.114" cy="1905.693" r="8.504"/>
</g>
<g id="CIRCLE_00000106865676282863832790000001091231533230084772_">
	<circle fill="#FFFFFF" stroke="#000000" stroke-width="2" stroke-miterlimit="10" cx="1380.704" cy="1837.191" r="8.504"/>
</g>
<g id="CIRCLE_00000148642926801662105100000008774089105469806981_">
	<circle fill="#FFFFFF" stroke="#000000" stroke-width="2" stroke-miterlimit="10" cx="1216.841" cy="1669.339" r="8.504"/>
</g>
<g id="LWPOLYLINE_00000078038318112822044290000017965400488651229358_">
	<path d="M380.672,2118.101c0-31.311,25.382-56.693,56.693-56.693h830.551c31.311,0,56.693,25.382,56.693,56.693v53.858
		c0,6.262,5.076,11.339,11.339,11.339h46.772v870.236c0,46.966-38.073,85.04-85.039,85.04H407.601
		c-46.966,0-85.039-38.073-85.039-85.04v-870.236h46.772c6.262,0,11.339-5.076,11.339-11.339V2118.101z"/>
</g>
<g id="LWPOLYLINE_00000068658680500497530200000007689448117130852994_">
	<path d="M44.766,2166.29c0-14.09,11.422-25.512,25.512-25.512h49.846c13.426,0,24.554,10.406,25.454,23.801l60.736,903.747
		c4.801,71.443,64.153,126.94,135.757,126.94h283.798v189.921H95.79v-392.155c4.472-4.384,4.544-11.562,0.16-16.034
		c-4.383-4.472-11.562-4.544-16.034-0.16c-0.054,0.053-0.107,0.106-0.16,0.16H44.766C44.766,2976.999,44.766,2166.29,44.766,2166.29
		z"/>
</g>
<g id="LWPOLYLINE_00000072255831722237596900000001268504563563184569_">
	<path d="M1363.209,3195.267h-283.798v189.921h530.079v-392.155c-0.054-0.053-0.107-0.106-0.16-0.16
		c-4.383-4.472-4.312-11.651,0.16-16.034c4.472-4.383,11.651-4.312,16.034,0.16h34.989V2166.29c0-14.09-11.422-25.512-25.512-25.512
		h-49.846c-13.426,0-24.554,10.406-25.454,23.801l-60.736,903.747C1494.165,3139.77,1434.814,3195.267,1363.209,3195.267z"/>
</g>
<g id="LWPOLYLINE_00000067201910320176480440000008028958358669269927_">
	<path fill="#FFFFFF" stroke="#000000" stroke-width="2" stroke-miterlimit="10" d="M1078.283,105.19l273.254-27.325
		c6.262,0,11.339,5.076,11.339,11.339v92.126c0,6.262-5.077,11.339-11.339,11.339l-273.254-27.325
		c-5.796-0.58-10.21-5.457-10.21-11.282v-37.588C1068.073,110.647,1072.487,105.77,1078.283,105.19z"/>
</g>
<g id="LWPOLYLINE_00000111189161340090961560000014728002969792741554_">
	<path fill="#FFFFFF" stroke="#000000" stroke-width="2" stroke-miterlimit="10" d="M626.997,3260.151
		c5.796,0.58,10.21,5.457,10.21,11.282v37.588c0,5.825-4.414,10.703-10.21,11.282l-273.254,27.325
		c-6.262,0-11.339-5.076-11.339-11.339v-92.126c0-6.262,5.076-11.338,11.339-11.338
		C353.742,3232.826,626.997,3260.151,626.997,3260.151z"/>
</g>
<g id="LWPOLYLINE_00000163764903775857795900000004162594209822279320_">
	<path fill="#FFFFFF" stroke="#000000" stroke-width="2" stroke-miterlimit="10" d="M354.871,77.981
		c-6.231-0.623-11.787,3.923-12.41,10.154c-0.037,0.375-0.056,0.751-0.056,1.128v92.007c0,6.262,5.076,11.339,11.339,11.339
		c0.377,0,0.753-0.019,1.128-0.056l272.126-27.21c5.796-0.58,10.211-5.457,10.211-11.282v-37.587
		c0-5.825-4.414-10.703-10.211-11.282L354.871,77.981z"/>
</g>
<g id="LWPOLYLINE_00000057866612681508598400000008102546887401149571_">
	<path fill="#FFFFFF" stroke="#000000" stroke-width="2" stroke-miterlimit="10" d="M1350.41,3232.941l-272.126,27.21
		c-5.796,0.58-10.21,5.457-10.21,11.282v37.588c0,5.825,4.414,10.703,10.21,11.282l272.126,27.21
		c6.231,0.623,11.787-3.923,12.411-10.154c0.037-0.375,0.056-0.751,0.056-1.128v-92.007c0-6.262-5.077-11.339-11.339-11.339
		C1351.161,3232.885,1350.784,3232.904,1350.41,3232.941z"/>
</g>
<text transform="matrix(1.6385 0 0 1 1125.5214 154.4318)" fill="#0068FF" font-family="'MyriadPro-Regular'" font-size="56.6929px">1mm</text>
<text transform="matrix(1.6385 0 0 1 375.3084 147.4379)" fill="#0068FF" font-family="'MyriadPro-Regular'" font-size="56.6929px">1mm</text>
<text transform="matrix(1.6385 0 0 1 878.013 887.4192)" fill="#0068FF" font-family="'MyriadPro-Regular'" font-size="56.6929px">3mm</text>
<text transform="matrix(1.6385 0 0 1 449.2624 612.0766)" fill="#0068FF" font-family="'MyriadPro-Regular'" font-size="56.6929px">3mm</text>
<text transform="matrix(1.6385 0 0 1 541.6587 1660.8351)" fill="#0068FF" font-family="'MyriadPro-Regular'" font-size="56.6929px">3mm</text>
<text transform="matrix(1.6385 0 0 1 817.9973 1808.6367)" fill="#0068FF" font-family="'MyriadPro-Regular'" font-size="56.6929px">3mm</text>
<text transform="matrix(1.6385 0 0 1 1400.8654 1782.2095)" fill="#0068FF" font-family="'MyriadPro-Regular'" font-size="56.6929px">3mm</text>
<text transform="matrix(1.6385 0 0 1 384.9673 3311.8118)" fill="#0068FF" font-family="'MyriadPro-Regular'" font-size="56.6929px">1mm</text>
<text transform="matrix(1.6385 0 0 1 1135.1809 3311.8118)" fill="#0068FF" font-family="'MyriadPro-Regular'" font-size="56.6929px">1mm</text>
</svg>
